<svg width="16" height="11" viewBox="0 0 16 11" fill="none" xmlns="http://www.w3.org/2000/svg">
<path d="M8 0.636719C10.995 0.63677 13.8615 2.83992 15.7549 5.12793C16.0825 5.52449 16.081 6.09777 15.7549 6.49219C15.2792 7.06704 14.2812 8.1769 12.9492 9.14648C9.58747 11.5936 6.40513 11.5882 3.05078 9.14648C1.71879 8.1769 0.720828 7.06704 0.245117 6.49219C-0.0820215 6.09696 -0.0818614 5.52324 0.245117 5.12793C2.13728 2.84144 5.00441 0.636719 8 0.636719ZM8 2.36133C6.09847 2.36133 4.55189 3.90807 4.55176 5.80957C4.55176 7.71118 6.09839 9.25879 8 9.25879C9.90157 9.25873 11.4482 7.71115 11.4482 5.80957C11.4481 3.9081 9.90148 2.36138 8 2.36133ZM8 3.3457C9.36039 3.34572 10.4629 4.44918 10.4629 5.80957C10.4626 7.16975 9.36023 8.27244 8 8.27246C6.63975 8.27246 5.53735 7.16977 5.53711 5.80957C5.53711 4.44917 6.6396 3.3457 8 3.3457Z" fill="url(#paint0_linear_290_1543)"/>
<defs>
<linearGradient id="paint0_linear_290_1543" x1="7.99976" y1="0.636719" x2="7.99647" y2="10.98" gradientUnits="userSpaceOnUse">
<stop stop-color="#8B6832"/>
<stop offset="1" stop-color="#FCDD9A"/>
</linearGradient>
</defs>
</svg>
