<svg width="25" height="28" viewBox="0 0 25 28" fill="none" xmlns="http://www.w3.org/2000/svg">
<path d="M24.9286 26.0244L23.5398 21.858C23.3508 21.2909 22.8199 20.9085 22.2222 20.9085H20.9972L22.0754 18.7521C22.2907 18.3216 22.2675 17.8105 22.0147 17.4008C21.7615 16.9911 21.3148 16.742 20.8333 16.742H19.6134C19.8175 16.0314 19.9629 15.2884 20.0393 14.5116C21.4731 13.8241 22.2222 12.7242 22.2222 11.1867C22.2222 11.0039 22.2014 10.834 22.1718 10.6692C23.0407 10.1003 23.6111 9.36787 23.6111 8.4091C23.6111 6.62213 21.6625 5.61106 19.3935 5.02873C19.2361 2.57464 18.5805 0.0761719 15.8333 0.0761719C13.8481 0.0761719 13.2176 1.39002 12.9143 2.02144C12.8569 2.14134 12.7712 2.31955 12.724 2.37744C12.7236 2.37695 12.7217 2.37695 12.7194 2.37695C12.7013 2.37695 12.6305 2.39084 12.4999 2.39084C12.3175 2.39084 12.2518 2.36355 12.2514 2.36306C12.237 2.33713 12.1458 2.14687 12.0856 2.02095C11.7823 1.39002 11.1518 0.0761719 9.16662 0.0761719C6.41896 0.0761719 5.76336 2.57513 5.60646 5.02965C3.33791 5.61247 1.38886 6.62213 1.38886 8.4091C1.38886 9.37015 1.96155 10.1035 2.8333 10.6729C2.80601 10.8386 2.77774 11.0043 2.77774 11.1867C2.77774 12.7121 3.51526 13.807 4.92683 14.4958C5.00414 15.2777 5.1574 16.0259 5.3634 16.742H4.16663C3.68513 16.742 3.23841 16.9911 2.98515 17.4008C2.7319 17.8105 2.70922 18.3216 2.9245 18.7521L4.00273 20.9085H2.77774C2.18003 20.9085 1.64905 21.2909 1.46014 21.858L0.0712571 26.0244C-0.0699645 26.448 0.00132455 26.9133 0.262012 27.2758C0.523134 27.6378 0.942567 27.8526 1.38886 27.8526H23.611C24.0573 27.8526 24.4768 27.6378 24.7379 27.2757C24.999 26.9137 25.0699 26.448 24.9286 26.0244ZM15.2777 13.9644C14.5639 13.9644 14.3625 13.2389 14.0708 12.5311C15.8541 12.4418 18.6935 12.1636 20.818 11.3428C20.6583 13.9574 16.6388 13.9644 15.2777 13.9644ZM18.5926 15.0125C18.4995 15.6184 18.3569 16.1929 18.175 16.742H14.5833C14.0046 16.742 13.4861 17.1013 13.2828 17.6433L12.4999 19.7308L11.7171 17.6433C11.5138 17.1012 10.9958 16.742 10.4166 16.742H6.82032C6.64161 16.1925 6.50739 15.6171 6.41429 15.0143C7.34534 15.2324 8.43561 15.3532 9.72218 15.3532C11.3532 15.3532 11.8055 13.8801 11.9985 13.2515C12.0638 13.038 12.1736 12.6816 12.255 12.6047C12.2573 12.6047 12.3244 12.5756 12.5004 12.5756C12.5601 12.5756 12.5842 12.583 12.5846 12.583C12.6513 12.6506 12.7976 13.0307 12.8847 13.2575C13.1458 13.9375 13.6907 15.3532 15.2777 15.3532C16.5675 15.3532 17.6602 15.2315 18.5926 15.0125ZM9.16662 1.46499C11.3888 1.46499 10.2777 3.77971 12.4999 3.77971C14.7222 3.77971 13.6111 1.46499 15.8333 1.46499C18.0555 1.46499 18.0555 4.45882 18.0555 7.25176C18.0555 7.25176 15.8333 8.4091 12.4999 8.4091C9.16662 8.4091 6.9444 7.25176 6.9444 7.25176C6.9444 4.5389 6.9444 1.46499 9.16662 1.46499ZM2.77774 8.4091C2.77774 7.65268 3.84165 6.9689 5.55877 6.468C5.55644 6.73698 5.55552 7.00129 5.55552 7.25176C5.55552 7.76932 5.84349 8.24428 6.30275 8.48364C6.40599 8.53734 8.8685 9.79792 12.4999 9.79792C16.1314 9.79792 18.5939 8.53734 18.6972 8.48364C19.1564 8.24428 19.4444 7.76932 19.4444 7.25176C19.4444 7.00129 19.4435 6.73649 19.4411 6.46757C21.1587 6.96803 22.2222 7.65268 22.2222 8.40915C22.2222 9.94331 17.8694 11.1868 12.4999 11.1868C7.13049 11.1868 2.77774 9.94326 2.77774 8.4091ZM4.18144 11.3428C6.25642 12.1446 9.00733 12.4279 10.7972 12.5233C10.5448 13.2334 10.4388 13.9644 9.72218 13.9644C8.36107 13.9644 4.34165 13.9574 4.18144 11.3428ZM1.38886 26.4638L2.77774 22.2973H6.24996L4.16663 18.1308H10.4166L12.4999 23.6861L14.5833 18.1308H20.8333L18.7499 22.2973H22.2222L23.611 26.4638H1.38886Z" fill="#1A1A1A"/>
</svg>
