<svg width="24" height="27" viewBox="0 0 24 27" fill="none" xmlns="http://www.w3.org/2000/svg">
<path d="M12 0L11.25 0.543164L10.4818 1.04678L9.6849 1.51611L8.8724 1.94854L8.03906 2.34141L7.1875 2.69473L6.32292 3.01113L5.44531 3.28535L4.55729 3.51738L3.65625 3.70986L2.7474 3.85752L1.83594 3.96299L0.919271 4.02891L0 4.05L0.0208333 5.17588L0.0885417 6.29912L0.200521 7.41973L0.359375 8.53506L0.5625 9.64248L0.807292 10.7394L1.09635 11.8257L1.42969 12.8988L1.80469 13.9588L2.22396 15.0029L2.6849 16.0286L3.1849 17.0332L3.72396 18.0193L4.30208 18.9791L4.91927 19.9151L5.57552 20.8274L6.26562 21.7107L6.98958 22.5624L7.7474 23.3851L8.53906 24.1787L9.36198 24.9354L10.2135 25.6605L11.0938 26.3487L12 27L12.9063 26.3487L13.7865 25.6605L14.638 24.9354L15.4609 24.1787L16.2526 23.3851L17.0104 22.5624L17.7344 21.7107L18.4245 20.8274L19.0781 19.9151L19.6953 18.9791L20.276 18.0193L20.8151 17.0332L21.3151 16.0286L21.776 15.0029L22.1927 13.9588L22.5677 12.8988L22.901 11.8257L23.1927 10.7394L23.4401 9.64248L23.6406 8.53506L23.7995 7.41973L23.9115 6.29912L23.9792 5.17588L24 4.05L23.0807 4.02891L22.1641 3.96299L21.2526 3.85752L20.3438 3.70986L19.4427 3.51738L18.5547 3.28535L17.6771 3.01113L16.8099 2.69473L15.9609 2.34141L15.1276 1.94854L14.3125 1.51611L13.5182 1.04678L12.7474 0.543164L12 0ZM12 1.6585L12.7969 2.18057L13.6146 2.66572L14.4505 3.1166L15.3099 3.52793L16.1823 3.89707L17.0729 4.2293L17.9766 4.52197L18.8932 4.76982L19.8177 4.98076L20.75 5.14687L21.6901 5.27344L22.6354 5.35781L22.5625 6.42041L22.4453 7.48037L22.2891 8.5377L22.0885 9.58447L21.8464 10.6233L21.5625 11.6517L21.2396 12.6642L20.8776 13.6661L20.4714 14.6522L20.0312 15.6199L19.5495 16.5691L19.0313 17.4973L18.474 18.4043L17.8854 19.2902L17.2604 20.1472L16.6016 20.9804L15.9089 21.7846L15.1849 22.5598L14.4323 23.306L13.6484 24.0179L12.8359 24.7008L12 25.3494L11.1641 24.7008L10.3516 24.0179L9.57031 23.306L8.8151 22.5598L8.09115 21.7846L7.39844 20.9804L6.74219 20.1472L6.11458 19.2902L5.52604 18.4043L4.96875 17.4973L4.45052 16.5691L3.97135 15.6199L3.52604 14.6522L3.125 13.6661L2.76042 12.6642L2.4375 11.6517L2.15365 10.6233L1.91146 9.58447L1.71094 8.5377L1.55469 7.48037L1.4375 6.42041L1.36458 5.35781L2.30729 5.27344L3.2474 5.14687L4.18229 4.98076L5.10938 4.76982L6.02344 4.52197L6.92708 4.2293L7.81771 3.89707L8.6901 3.52793L9.54948 3.1166L10.388 2.66572L11.2031 2.18057L12 1.6585ZM12 6.75C10.5351 6.75 9.33333 7.96683 9.33333 9.45V10.8H8V11.475V17.55H16V10.8H14.6667V9.49746C14.6672 9.48165 14.6672 9.46582 14.6667 9.45C14.6667 7.96683 13.4649 6.75 12 6.75ZM12 8.1C12.7443 8.1 13.3333 8.69642 13.3333 9.45V10.8H10.6667V9.49746C10.6672 9.48165 10.6672 9.46582 10.6667 9.45C10.6667 8.69642 11.2557 8.1 12 8.1ZM9.33333 12.15H14.6667V16.2H9.33333V12.15Z" fill="#1A1A1A"/>
</svg>
