<svg width="27" height="28" viewBox="0 0 27 28" fill="none" xmlns="http://www.w3.org/2000/svg">
<path d="M24.8599 6.86725C24.7091 6.64835 24.4806 6.49725 24.2223 6.44565C23.9641 6.39405 23.6962 6.44597 23.4748 6.59051C23.2535 6.73505 23.0959 6.96097 23.0352 7.22087C22.9745 7.48076 23.0153 7.75442 23.1492 7.98441C23.4872 8.51545 23.7812 9.07406 24.0281 9.65446C24.1354 9.90549 24.3366 10.103 24.5874 10.2035C24.8383 10.3039 25.1181 10.2992 25.3655 10.1903C25.6129 10.0814 25.8075 9.87719 25.9065 9.62266C26.0055 9.36814 26.0009 9.08412 25.8935 8.83309C25.6031 8.14995 25.2574 7.49242 24.8599 6.86725ZM6.97907 18.619V16.8375L9.60907 14.1072C9.75986 13.9592 9.90069 13.8011 10.0306 13.6339C10.136 13.5022 10.2263 13.3587 10.2996 13.2062C10.3625 13.0742 10.3955 12.9296 10.3961 12.783C10.401 12.6443 10.3693 12.5068 10.3041 12.3848C10.2419 12.2771 10.143 12.1962 10.0261 12.1573C9.86974 12.1062 9.706 12.0824 9.54181 12.0867H7.11584V10.3075C7.48803 10.224 7.90357 10.1482 8.36246 10.0799C8.89255 10.0021 9.42774 9.96562 9.96332 9.97073C10.5001 9.94707 11.0356 10.0418 11.5328 10.2483C11.8944 10.4116 12.1853 10.7027 12.3512 11.0674C12.5257 11.4882 12.609 11.9421 12.5956 12.3984C12.5997 12.747 12.5498 13.0941 12.4476 13.4269C12.3485 13.7356 12.205 14.0277 12.0216 14.2937C11.8205 14.582 11.5955 14.8522 11.3489 15.1015L9.89158 16.6168H12.8287V18.6281L6.97907 18.619ZM17.4408 18.619V17.0263H13.9139L13.5328 16.0298L15.9834 10.0299H18.2255L16.156 15.1401H17.4318V13.8683L17.8533 12.7579H19.647V15.1401H20.3196V16.6873L19.647 17.0354V18.6281L17.4408 18.619ZM23.0909 3.77516C23.1326 3.88993 23.1575 4.01028 23.1649 4.13238C23.2075 4.40628 23.1511 4.68659 23.0061 4.9216C22.861 5.15661 22.6371 5.33046 22.3756 5.41108L19.3555 6.34849C19.0686 6.43659 18.759 6.40542 18.4947 6.26184C18.2304 6.11826 18.0332 5.87402 17.9464 5.58286C17.8595 5.2917 17.8903 4.97747 18.0317 4.70929C18.1732 4.44111 18.4139 4.24095 18.7008 4.15285L18.9878 4.06412C18.2628 3.66281 17.4966 3.34313 16.7031 3.11078C15.125 2.64694 13.4671 2.53248 11.8416 2.77514C10.2161 3.0178 8.66096 3.61191 7.28132 4.51728C5.90168 5.42266 4.72975 6.61818 3.84483 8.02296C2.95991 9.42774 2.38263 11.009 2.15204 12.6598C1.92146 14.3106 2.04296 15.9923 2.50831 17.5914C2.97367 19.1904 3.77202 20.6693 4.84937 21.9281C5.92671 23.1869 7.25792 24.1962 8.75292 24.8877C10.2479 25.5792 11.8718 25.9368 13.5148 25.9363C13.8141 25.9436 14.1135 25.9337 14.4117 25.9067C14.8429 25.8761 15.2719 25.8191 15.6964 25.7361C15.8302 25.7038 15.9691 25.6993 16.1046 25.7229C16.2402 25.7466 16.3696 25.7979 16.4851 25.8737C16.6006 25.9495 16.6997 26.0483 16.7765 26.1641C16.8534 26.2799 16.9063 26.4103 16.932 26.5474C16.9578 26.6845 16.9559 26.8255 16.9265 26.9618C16.8971 27.0982 16.8408 27.2271 16.7609 27.3407C16.6811 27.4544 16.5793 27.5504 16.4619 27.6231C16.3444 27.6957 16.2137 27.7434 16.0776 27.7634C15.5751 27.8597 15.0675 27.9266 14.5574 27.9636C14.4027 27.9636 13.6807 28 13.5193 28C11.4536 28.0023 9.41487 27.5237 7.56003 26.601C5.70519 25.6783 4.08367 24.336 2.82025 22.6775C1.55683 21.0191 0.685183 19.0885 0.272382 17.0345C-0.140419 14.9805 -0.0833694 12.8578 0.43914 10.8297C0.961649 8.8016 1.93569 6.92217 3.28631 5.33603C4.63693 3.74989 6.32814 2.49933 8.22978 1.68057C10.1314 0.861807 12.1928 0.496677 14.2553 0.613272C16.3179 0.729868 18.3265 1.32508 20.1268 2.35311L19.8443 1.60227C19.7845 1.45973 19.7537 1.30641 19.7536 1.15149C19.7536 0.996563 19.7844 0.84323 19.8442 0.700668C19.9039 0.558106 19.9914 0.429248 20.1014 0.321813C20.2114 0.214378 20.3416 0.130575 20.4843 0.0754235C20.6269 0.0202721 20.7791 -0.0050933 20.9316 0.00084658C21.0842 0.00678646 21.234 0.0439094 21.3721 0.109992C21.5102 0.176075 21.6337 0.269758 21.7352 0.38543C21.8368 0.501102 21.9143 0.636384 21.9631 0.783173L23.0842 3.77516H23.0909ZM19.1896 24.446C18.9547 24.5803 18.782 24.8037 18.7095 25.0672C18.637 25.3307 18.6705 25.6126 18.8028 25.851C18.9352 26.0894 19.1553 26.2646 19.415 26.3382C19.6746 26.4118 19.9525 26.3777 20.1873 26.2435C20.8293 25.8815 21.4385 25.4627 22.0079 24.9921C22.1175 24.9089 22.2095 24.8042 22.2782 24.6841C22.347 24.564 22.3912 24.4312 22.4083 24.2934C22.4253 24.1556 22.4147 24.0157 22.3773 23.8822C22.3398 23.7486 22.2762 23.6241 22.1902 23.516C22.1043 23.408 21.9977 23.3186 21.877 23.2533C21.7562 23.188 21.6237 23.1481 21.4874 23.1359C21.3511 23.1237 21.2137 23.1396 21.0836 23.1825C20.9534 23.2255 20.8332 23.2946 20.7299 23.3857C20.2484 23.7847 19.7329 24.1395 19.1896 24.446ZM23.1963 20.5781C23.0535 20.8101 23.0075 21.0901 23.0683 21.3566C23.129 21.6231 23.2916 21.8541 23.5202 21.999C23.7489 22.1438 24.0249 22.1905 24.2874 22.1288C24.55 22.0672 24.7777 21.9022 24.9204 21.6702C25.309 21.0396 25.6472 20.3784 25.9316 19.693C25.9897 19.5668 26.0221 19.4301 26.0268 19.2909C26.0315 19.1518 26.0084 19.0131 25.959 18.8832C25.9095 18.7534 25.8347 18.635 25.739 18.5352C25.6433 18.4354 25.5287 18.3563 25.4022 18.3026C25.2756 18.2489 25.1396 18.2217 25.0024 18.2226C24.8652 18.2236 24.7296 18.2527 24.6038 18.3082C24.478 18.3637 24.3645 18.4444 24.2702 18.5455C24.1759 18.6466 24.1027 18.7661 24.055 18.8966C23.8137 19.4796 23.5265 20.0419 23.1963 20.5781ZM24.9384 15.2221C24.9403 15.4802 25.0376 15.7283 25.2111 15.9171C25.3846 16.106 25.6216 16.2219 25.8753 16.2419C26.1289 16.2619 26.3807 16.1846 26.5809 16.0252C26.7811 15.8659 26.9151 15.6361 26.9563 15.3813C27.0146 14.64 27.0146 13.8952 26.9563 13.1538C26.9589 13.0093 26.9316 12.8657 26.8762 12.7325C26.8207 12.5994 26.7383 12.4795 26.6343 12.3806C26.5303 12.2818 26.407 12.2062 26.2724 12.1588C26.1378 12.1114 25.9949 12.0932 25.8529 12.1053C25.7109 12.1175 25.573 12.1598 25.4482 12.2294C25.3233 12.2991 25.2142 12.3946 25.128 12.5097C25.0418 12.6248 24.9804 12.7571 24.9477 12.8978C24.9151 13.0385 24.9119 13.1847 24.9384 13.3268C24.9877 13.9575 24.9877 14.5913 24.9384 15.2221Z" fill="#1A1A1A"/>
</svg>
